# xmcd
#
# Track frame offsets:
#	192
#	15882
#	31000
#	46675
#	61542
#	80090
#	97937
#	108140
#	119350
#	130372
#
# Disc length: 1880
#
# Revision: 1
# Processed by: cddbd v1.5.1PL0 Copyright (c) Steve Scherf et al.
# Submitted via: ExactAudioCopy v0.95a3
# Normalized: r0:TDELIM( - )
#
DISCID=6607560a
DTITLE=Various Artist - An Old Fashioned Country Christmas - CD 1
DYEAR=1996
DGENRE=Christmas
TTITLE0=Eddie Rabbit - Have Yourself A Merry Little Christmas
TTITLE1=Merle Haggard - Silver Bells
TTITLE2=Suzy Bogguss - The First Noel
TTITLE3=Larry Gatlin and The Gatlin Brothers - Little Drummer Boy
TTITLE4=Tanya Tucker - What Child is This
TTITLE5=Glen Campbell - O Holy Night
TTITLE6=Lacy J Dalton - Away in a Manger
TTITLE7=Eddy Raven - Thank God for Kids
TTITLE8=Pirates of the Mississippi - Jingle Bells
TTITLE9=Sonny James - Silent Night - The First Noel
EXTD=
EXTT0=
EXTT1=
EXTT2=
EXTT3=
EXTT4=
EXTT5=
EXTT6=
EXTT7=
EXTT8=
EXTT9=
PLAYORDER=
